<?xml version="1.0" standalone="no"?>
<!DOCTYPE svg PUBLIC "-//W3C//DTD SVG 20010904//EN"
 "http://www.w3.org/TR/2001/REC-SVG-20010904/DTD/svg10.dtd">
<svg version="1.0" xmlns="http://www.w3.org/2000/svg"
 width="379.000000pt" height="379.000000pt" viewBox="0 0 379.000000 379.000000"
 preserveAspectRatio="xMidYMid meet">
<metadata>
Created by potrace 1.14, written by Peter Selinger 2001-2017
</metadata>
<g transform="translate(0.000000,379.000000) scale(0.100000,-0.100000)"
fill="#000000" stroke="none">
<path d="M0 1895 l0 -1895 1895 0 1895 0 0 1895 0 1895 -1895 0 -1895 0 0
-1895z m2673 29 c428 -855 775 -1559 772 -1565 -10 -15 -670 -12 -682 4 -6 6
-142 274 -303 595 -235 469 -298 585 -317 593 -27 10 -1074 13 -1111 3 -19 -6
-77 -113 -319 -598 -162 -325 -300 -594 -307 -598 -16 -11 -76 -10 -76 1 0 15
1550 3121 1558 3121 4 0 357 -700 785 -1556z"/>
<path d="M1760 3050 c-66 -133 -120 -248 -120 -256 0 -9 193 -402 429 -873
649 -1295 740 -1474 754 -1483 14 -9 481 -11 490 -2 7 7 -1415 2854 -1425
2854 -4 0 -62 -108 -128 -240z"/>
<path d="M1317 2165 c-141 -283 -257 -517 -257 -520 0 -3 236 -5 525 -5 289 0
525 3 524 8 -1 17 -515 1027 -524 1029 -6 2 -126 -229 -268 -512z"/>
</g>
</svg>
